<?xml version="1.0" encoding="UTF-8" standalone="no"?><svg xmlns="http://www.w3.org/2000/svg" xmlns:xlink="http://www.w3.org/1999/xlink" contentScriptType="application/ecmascript" contentStyleType="text/css" height="412px" preserveAspectRatio="none" style="width:418px;height:412px;" version="1.1" viewBox="0 0 418 412" width="418px" zoomAndPan="magnify"><defs><filter height="300%" id="fqi6ithtbn1qp" width="300%" x="-1" y="-1"><feGaussianBlur result="blurOut" stdDeviation="2.0"/><feColorMatrix in="blurOut" result="blurOut2" type="matrix" values="0 0 0 0 0 0 0 0 0 0 0 0 0 0 0 0 0 0 .4 0"/><feOffset dx="4.0" dy="4.0" in="blurOut2" result="blurOut3"/><feBlend in="SourceGraphic" in2="blurOut3" mode="normal"/></filter></defs><g><line style="stroke: #A80036; stroke-width: 1.0; stroke-dasharray: 5.0,5.0;" x1="42" x2="42" y1="41.9404" y2="368.5854"/><line style="stroke: #A80036; stroke-width: 1.0; stroke-dasharray: 5.0,5.0;" x1="117" x2="117" y1="41.9404" y2="368.5854"/><line style="stroke: #A80036; stroke-width: 1.0; stroke-dasharray: 5.0,5.0;" x1="213.5" x2="213.5" y1="41.9404" y2="368.5854"/><line style="stroke: #A80036; stroke-width: 1.0; stroke-dasharray: 5.0,5.0;" x1="343.5" x2="343.5" y1="41.9404" y2="368.5854"/><rect fill="#FEFECE" filter="url(#fqi6ithtbn1qp)" height="33.9404" style="stroke: #A80036; stroke-width: 1.5;" width="65" x="8" y="3"/><text fill="#000000" font-family="sans-serif" font-size="14" lengthAdjust="spacingAndGlyphs" textLength="51" x="15" y="26.8643">Browser</text><rect fill="#FEFECE" filter="url(#fqi6ithtbn1qp)" height="33.9404" style="stroke: #A80036; stroke-width: 1.5;" width="65" x="8" y="367.5854"/><text fill="#000000" font-family="sans-serif" font-size="14" lengthAdjust="spacingAndGlyphs" textLength="51" x="15" y="391.4497">Browser</text><rect fill="#FEFECE" filter="url(#fqi6ithtbn1qp)" height="33.9404" style="stroke: #A80036; stroke-width: 1.5;" width="57" x="87" y="3"/><text fill="#000000" font-family="sans-serif" font-size="14" lengthAdjust="spacingAndGlyphs" textLength="43" x="94" y="26.8643">Tooltip</text><rect fill="#FEFECE" filter="url(#fqi6ithtbn1qp)" height="33.9404" style="stroke: #A80036; stroke-width: 1.5;" width="57" x="87" y="367.5854"/><text fill="#000000" font-family="sans-serif" font-size="14" lengthAdjust="spacingAndGlyphs" textLength="43" x="94" y="391.4497">Tooltip</text><rect fill="#FEFECE" filter="url(#fqi6ithtbn1qp)" height="33.9404" style="stroke: #A80036; stroke-width: 1.5;" width="100" x="161.5" y="3"/><text fill="#000000" font-family="sans-serif" font-size="14" lengthAdjust="spacingAndGlyphs" textLength="86" x="168.5" y="26.8643">StateMachine</text><rect fill="#FEFECE" filter="url(#fqi6ithtbn1qp)" height="33.9404" style="stroke: #A80036; stroke-width: 1.5;" width="100" x="161.5" y="367.5854"/><text fill="#000000" font-family="sans-serif" font-size="14" lengthAdjust="spacingAndGlyphs" textLength="86" x="168.5" y="391.4497">StateMachine</text><rect fill="#FEFECE" filter="url(#fqi6ithtbn1qp)" height="33.9404" style="stroke: #A80036; stroke-width: 1.5;" width="132" x="275.5" y="3"/><text fill="#000000" font-family="sans-serif" font-size="14" lengthAdjust="spacingAndGlyphs" textLength="118" x="282.5" y="26.8643">TransitionFunction</text><rect fill="#FEFECE" filter="url(#fqi6ithtbn1qp)" height="33.9404" style="stroke: #A80036; stroke-width: 1.5;" width="132" x="275.5" y="367.5854"/><text fill="#000000" font-family="sans-serif" font-size="14" lengthAdjust="spacingAndGlyphs" textLength="118" x="282.5" y="391.4497">TransitionFunction</text><polygon fill="#A80036" points="105.5,53.9404,115.5,57.9404,105.5,61.9404,109.5,57.9404" style="stroke: #A80036; stroke-width: 1.0;"/><line style="stroke: #A80036; stroke-width: 1.0;" x1="42.5" x2="111.5" y1="57.9404" y2="57.9404"/><polygon fill="#A80036" points="201.5,86.4565,211.5,90.4565,201.5,94.4565,205.5,90.4565" style="stroke: #A80036; stroke-width: 1.0;"/><line style="stroke: #A80036; stroke-width: 1.0;" x1="117.5" x2="207.5" y1="90.4565" y2="90.4565"/><text fill="#000000" font-family="sans-serif" font-size="13" lengthAdjust="spacingAndGlyphs" textLength="72" x="124.5" y="85.6001">HandleEvent</text><polygon fill="#A80036" points="331.5,118.9727,341.5,122.9727,331.5,126.9727,335.5,122.9727" style="stroke: #A80036; stroke-width: 1.0;"/><line style="stroke: #A80036; stroke-width: 1.0;" x1="213.5" x2="337.5" y1="122.9727" y2="122.9727"/><text fill="#000000" font-family="sans-serif" font-size="13" lengthAdjust="spacingAndGlyphs" textLength="72" x="220.5" y="118.1162">HandleEvent</text><polygon fill="#A80036" points="224.5,151.4888,214.5,155.4888,224.5,159.4888,220.5,155.4888" style="stroke: #A80036; stroke-width: 1.0;"/><line style="stroke: #A80036; stroke-width: 1.0; stroke-dasharray: 2.0,2.0;" x1="218.5" x2="342.5" y1="155.4888" y2="155.4888"/><text fill="#000000" font-family="sans-serif" font-size="13" lengthAdjust="spacingAndGlyphs" textLength="62" x="230.5" y="150.6323">Next State</text><polygon fill="#A80036" points="224.5,184.0049,214.5,188.0049,224.5,192.0049,220.5,188.0049" style="stroke: #A80036; stroke-width: 1.0;"/><line style="stroke: #A80036; stroke-width: 1.0;" x1="218.5" x2="342.5" y1="188.0049" y2="188.0049"/><text fill="#000000" font-family="sans-serif" font-size="13" lengthAdjust="spacingAndGlyphs" textLength="63" x="230.5" y="183.1484">StartTicker</text><polygon fill="#A80036" points="224.5,216.521,214.5,220.521,224.5,224.521,220.5,220.521" style="stroke: #A80036; stroke-width: 1.0;"/><line style="stroke: #A80036; stroke-width: 1.0;" x1="218.5" x2="342.5" y1="220.521" y2="220.521"/><text fill="#000000" font-family="sans-serif" font-size="13" lengthAdjust="spacingAndGlyphs" textLength="97" x="230.5" y="215.6646">StartPauseTimer</text><polygon fill="#A80036" points="224.5,249.0371,214.5,253.0371,224.5,257.0371,220.5,253.0371" style="stroke: #A80036; stroke-width: 1.0;"/><line style="stroke: #A80036; stroke-width: 1.0;" x1="218.5" x2="342.5" y1="253.0371" y2="253.0371"/><text fill="#000000" font-family="sans-serif" font-size="13" lengthAdjust="spacingAndGlyphs" textLength="103" x="230.5" y="248.1807">StartDisplayTimer</text><polygon fill="#A80036" points="128.5,281.5532,118.5,285.5532,128.5,289.5532,124.5,285.5532" style="stroke: #A80036; stroke-width: 1.0;"/><line style="stroke: #A80036; stroke-width: 1.0;" x1="122.5" x2="342.5" y1="285.5532" y2="285.5532"/><text fill="#000000" font-family="sans-serif" font-size="13" lengthAdjust="spacingAndGlyphs" textLength="113" x="134.5" y="280.6968">SaveCursorPosition</text><polygon fill="#A80036" points="128.5,314.0693,118.5,318.0693,128.5,322.0693,124.5,318.0693" style="stroke: #A80036; stroke-width: 1.0;"/><line style="stroke: #A80036; stroke-width: 1.0;" x1="122.5" x2="342.5" y1="318.0693" y2="318.0693"/><text fill="#000000" font-family="sans-serif" font-size="13" lengthAdjust="spacingAndGlyphs" textLength="44" x="134.5" y="313.2129">MoveTo</text><polygon fill="#A80036" points="128.5,346.5854,118.5,350.5854,128.5,354.5854,124.5,350.5854" style="stroke: #A80036; stroke-width: 1.0;"/><line style="stroke: #A80036; stroke-width: 1.0;" x1="122.5" x2="342.5" y1="350.5854" y2="350.5854"/><text fill="#000000" font-family="sans-serif" font-size="13" lengthAdjust="spacingAndGlyphs" textLength="29" x="134.5" y="345.729">Fade</text><!--
@startuml

Browser -> Tooltip
Tooltip -> StateMachine : HandleEvent
StateMachine -> TransitionFunction : HandleEvent
TransitionFunction - -> StateMachine : Next State
TransitionFunction -> StateMachine : StartTicker
TransitionFunction -> StateMachine : StartPauseTimer
TransitionFunction -> StateMachine : StartDisplayTimer
TransitionFunction -> Tooltip : SaveCursorPosition
TransitionFunction -> Tooltip : MoveTo
TransitionFunction -> Tooltip : Fade


@enduml

PlantUML version 1.2018.12(Sun Oct 21 18:15:15 CST 2018)
(GPL source distribution)
Java Runtime: Java(TM) SE Runtime Environment
JVM: Java HotSpot(TM) Client VM
Java Version: 1.8.0_162-b12
Operating System: Windows 10
OS Version: 10.0
Default Encoding: MS950
Language: zh
Country: TW
--></g></svg>