<?xml version="1.0" encoding="UTF-8" standalone="no"?><svg xmlns="http://www.w3.org/2000/svg" xmlns:xlink="http://www.w3.org/1999/xlink" contentScriptType="application/ecmascript" contentStyleType="text/css" height="502px" preserveAspectRatio="none" style="width:695px;height:502px;" version="1.1" viewBox="0 0 695 502" width="695px" zoomAndPan="magnify"><defs><filter height="300%" id="fqg543noodbwb" width="300%" x="-1" y="-1"><feGaussianBlur result="blurOut" stdDeviation="2.0"/><feColorMatrix in="blurOut" result="blurOut2" type="matrix" values="0 0 0 0 0 0 0 0 0 0 0 0 0 0 0 0 0 0 .4 0"/><feOffset dx="4.0" dy="4.0" in="blurOut2" result="blurOut3"/><feBlend in="SourceGraphic" in2="blurOut3" mode="normal"/></filter></defs><g><ellipse cx="83.2112" cy="466" fill="#000000" filter="url(#fqg543noodbwb)" rx="10" ry="10" style="stroke: none; stroke-width: 1.0;"/><rect fill="#FEFECE" filter="url(#fqg543noodbwb)" height="50" rx="12.5" ry="12.5" style="stroke: #A80036; stroke-width: 1.5;" width="62" x="128.211" y="441"/><line style="stroke: #A80036; stroke-width: 1.5;" x1="128.211" x2="190.211" y1="465.7899" y2="465.7899"/><text fill="#000000" font-family="Noto Sans CJK TC Medium" font-size="14" lengthAdjust="spacingAndGlyphs" textLength="42" x="138.211" y="457.3338">未啟動</text><rect fill="#FEFECE" filter="url(#fqg543noodbwb)" height="50" rx="12.5" ry="12.5" style="stroke: #A80036; stroke-width: 1.5;" width="50" x="13.2112" y="284"/><line style="stroke: #A80036; stroke-width: 1.5;" x1="13.2112" x2="63.2112" y1="308.7899" y2="308.7899"/><text fill="#000000" font-family="Noto Sans CJK TC Medium" font-size="14" lengthAdjust="spacingAndGlyphs" textLength="28" x="24.2112" y="300.3338">暫停</text><rect fill="#FEFECE" filter="url(#fqg543noodbwb)" height="50" rx="12.5" ry="12.5" style="stroke: #A80036; stroke-width: 1.5;" width="50" x="353.211" y="18"/><line style="stroke: #A80036; stroke-width: 1.5;" x1="353.211" x2="403.211" y1="42.7899" y2="42.7899"/><text fill="#000000" font-family="Noto Sans CJK TC Medium" font-size="14" lengthAdjust="spacingAndGlyphs" textLength="28" x="364.211" y="34.3338">淡入</text><rect fill="#FEFECE" filter="url(#fqg543noodbwb)" height="50" rx="12.5" ry="12.5" style="stroke: #A80036; stroke-width: 1.5;" width="50" x="175.211" y="139"/><line style="stroke: #A80036; stroke-width: 1.5;" x1="175.211" x2="225.211" y1="163.7899" y2="163.7899"/><text fill="#000000" font-family="Noto Sans CJK TC Medium" font-size="14" lengthAdjust="spacingAndGlyphs" textLength="28" x="186.211" y="155.3338">顯示</text><rect fill="#FEFECE" filter="url(#fqg543noodbwb)" height="50" rx="12.5" ry="12.5" style="stroke: #A80036; stroke-width: 1.5;" width="50" x="311.211" y="284"/><line style="stroke: #A80036; stroke-width: 1.5;" x1="311.211" x2="361.211" y1="308.7899" y2="308.7899"/><text fill="#000000" font-family="Noto Sans CJK TC Medium" font-size="14" lengthAdjust="spacingAndGlyphs" textLength="27" x="322.711" y="300.3338">淡出</text><!--link *start to 未啟動--><path d="M93.305,466 C103.1704,466 113.036,466 122.901,466 " fill="none" id="*start-未啟動" style="stroke: #A80036; stroke-width: 1.0;"/><polygon fill="#A80036" points="128.06,466,119.06,462,123.06,466,119.06,470,128.06,466" style="stroke: #A80036; stroke-width: 1.0;"/><!--link 暫停 to 未啟動--><path d="M28.8055,339.297 C23.7498,360.945 21.0987,390.155 35.2112,411 C55.3384,440.7285 77.4008,426.4272 110.211,441 C116.011,443.5762 122.132,446.4478 128.008,449.2838 " fill="none" id="暫停-未啟動" style="stroke: #A80036; stroke-width: 1.0;"/><polygon fill="#A80036" points="30.0604,334.244,24.0082,342.0139,28.8547,339.0965,31.7721,343.943,30.0604,334.244" style="stroke: #A80036; stroke-width: 1.0;"/><text fill="#000000" font-family="Noto Sans CJK TC Light" font-size="11" font-weight="bold" lengthAdjust="spacingAndGlyphs" textLength="46" x="51.7112" y="383.877">滑鼠懸停</text><text fill="#000000" font-family="Noto Sans CJK TC Light" font-size="11" lengthAdjust="spacingAndGlyphs" textLength="0" x="99.7112" y="383.877"/><text fill="#000000" font-family="Noto Sans CJK TC Light" font-size="11" lengthAdjust="spacingAndGlyphs" textLength="75" x="38.2112" y="395.5444">/ 記錄滑鼠位置</text><text fill="#000000" font-family="Noto Sans CJK TC Light" font-size="11" lengthAdjust="spacingAndGlyphs" textLength="44" x="54.7112" y="407.2119">開始計時</text><!--link 暫停 to 未啟動--><path d="M63.5783,324.931 C81.3732,336.463 104.6703,353.83 120.211,374 C134.403,392.4195 144.487,416.7836 150.841,435.6658 " fill="none" id="暫停-未啟動" style="stroke: #A80036; stroke-width: 1.0;"/><polygon fill="#A80036" points="152.534,440.8367,153.5339,431.0387,150.9777,436.0851,145.9313,433.5289,152.534,440.8367" style="stroke: #A80036; stroke-width: 1.0;"/><text fill="#000000" font-family="Noto Sans CJK TC Light" font-size="11" font-weight="bold" lengthAdjust="spacingAndGlyphs" textLength="47" x="146.711" y="389.877">滑鼠離開</text><text fill="#000000" font-family="Noto Sans CJK TC Light" font-size="11" lengthAdjust="spacingAndGlyphs" textLength="0" x="195.711" y="389.877"/><text fill="#000000" font-family="Noto Sans CJK TC Light" font-size="11" lengthAdjust="spacingAndGlyphs" textLength="56" x="144.211" y="401.5444">清除計時器</text><!--link 淡入 to 暫停--><path d="M347.987,47.425 C269.644,56.988 63.3148,86.753 23.2112,139 C-9.2515,181.292 11.6885,248.263 26.7443,283.873 " fill="none" id="淡入-暫停" style="stroke: #A80036; stroke-width: 1.0;"/><polygon fill="#A80036" points="352.959,46.825,343.5441,43.9338,347.9951,47.425,344.504,51.876,352.959,46.825" style="stroke: #A80036; stroke-width: 1.0;"/><text fill="#000000" font-family="Noto Sans CJK TC Light" font-size="11" font-weight="bold" lengthAdjust="spacingAndGlyphs" textLength="33" x="72.7112" y="155.377">時間到</text><text fill="#000000" font-family="Noto Sans CJK TC Light" font-size="11" lengthAdjust="spacingAndGlyphs" textLength="0" x="107.7112" y="155.377"/><text fill="#000000" font-family="Noto Sans CJK TC Light" font-size="11" lengthAdjust="spacingAndGlyphs" textLength="128" x="26.2112" y="167.0444">/在滑鼠位置建立工具提示</text><text fill="#000000" font-family="Noto Sans CJK TC Light" font-size="11" lengthAdjust="spacingAndGlyphs" textLength="56" x="63.2112" y="178.7119">啟動計時器</text><!--link 暫停 to 暫停--><path d="M63.4889,296.142 C80.9847,292.245 98.2112,296.531 98.2112,309 C98.2112,320.202 84.3061,324.8 68.7936,322.792 " fill="none" id="暫停-暫停" style="stroke: #A80036; stroke-width: 1.0;"/><polygon fill="#A80036" points="63.4889,321.858,71.6588,327.3582,68.4131,322.7251,73.0462,319.4795,63.4889,321.858" style="stroke: #A80036; stroke-width: 1.0;"/><text fill="#000000" font-family="Noto Sans CJK TC Light" font-size="11" font-weight="bold" lengthAdjust="spacingAndGlyphs" textLength="46" x="119.7112" y="300.377">滑鼠移動</text><text fill="#000000" font-family="Noto Sans CJK TC Light" font-size="11" lengthAdjust="spacingAndGlyphs" textLength="0" x="167.7112" y="300.377"/><text fill="#000000" font-family="Noto Sans CJK TC Light" font-size="11" lengthAdjust="spacingAndGlyphs" textLength="75" x="106.2112" y="312.0444">/ 記錄滑鼠位置</text><text fill="#000000" font-family="Noto Sans CJK TC Light" font-size="11" lengthAdjust="spacingAndGlyphs" textLength="56" x="116.7112" y="323.7119">重設計時器</text><!--link 淡入 to 淡入--><path d="M403.489,37.586 C420.985,35.945 438.211,37.75 438.211,43 C438.211,47.717 424.306,49.653 408.794,48.807 " fill="none" id="淡入-淡入" style="stroke: #A80036; stroke-width: 1.0;"/><polygon fill="#A80036" points="403.489,48.414,412.1683,53.0691,408.4753,48.784,412.7604,45.091,403.489,48.414" style="stroke: #A80036; stroke-width: 1.0;"/><text fill="#000000" font-family="Noto Sans CJK TC Light" font-size="11" font-weight="bold" lengthAdjust="spacingAndGlyphs" textLength="34" x="483.211" y="22.877">計時器</text><text fill="#000000" font-family="Noto Sans CJK TC Light" font-size="11" lengthAdjust="spacingAndGlyphs" textLength="0" x="519.211" y="22.877"/><text fill="#000000" font-family="Noto Sans CJK TC Light" font-size="11" lengthAdjust="spacingAndGlyphs" textLength="73" x="464.711" y="34.5444">/ 遞增不透明度</text><text fill="#000000" font-family="Noto Sans CJK TC Light" font-size="11" lengthAdjust="spacingAndGlyphs" textLength="110" x="446.211" y="46.2119">如果透明度已經到極限</text><text fill="#000000" font-family="Noto Sans CJK TC Light" font-size="11" lengthAdjust="spacingAndGlyphs" textLength="56" x="473.211" y="57.8794">停止計時器</text><text fill="#000000" font-family="Noto Sans CJK TC Light" font-size="11" lengthAdjust="spacingAndGlyphs" textLength="56" x="474.211" y="69.5469">啟動計時器</text><!--link 淡入 to 淡入--><path d="M403.238,36.292 C457.37,27.451 564.211,29.687 564.211,43 C564.211,55.896 463.943,58.398 408.463,50.505 " fill="none" id="淡入-淡入" style="stroke: #A80036; stroke-width: 1.0;"/><polygon fill="#A80036" points="403.238,49.708,411.5316,55.0199,408.1808,50.4623,412.7384,47.1115,403.238,49.708" style="stroke: #A80036; stroke-width: 1.0;"/><text fill="#000000" font-family="Noto Sans CJK TC Light" font-size="11" font-weight="bold" lengthAdjust="spacingAndGlyphs" textLength="46" x="602.711" y="40.377">滑鼠移動</text><text fill="#000000" font-family="Noto Sans CJK TC Light" font-size="11" lengthAdjust="spacingAndGlyphs" textLength="0" x="650.711" y="40.377"/><text fill="#000000" font-family="Noto Sans CJK TC Light" font-size="11" lengthAdjust="spacingAndGlyphs" textLength="111" x="572.211" y="52.0444">移動工具提示至游標處</text><!--link 淡入 to 顯示--><path d="M353.086,60.797 C320.711,82.441 264.502,120.019 230.007,143.08 " fill="none" id="淡入-顯示" style="stroke: #A80036; stroke-width: 1.0;"/><polygon fill="#A80036" points="225.496,146.096,235.2013,144.4204,229.653,143.3176,230.7558,137.7692,225.496,146.096" style="stroke: #A80036; stroke-width: 1.0;"/><!--link 淡入 to 淡出--><path d="M380.486,68.182 C382.172,87.365 384.323,114.871 385.211,139 C386.942,186.048 388.448,200.189 371.211,244 C366.505,255.962 360.029,268.499 353.926,279.275 " fill="none" id="淡入-淡出" style="stroke: #A80036; stroke-width: 1.0;"/><polygon fill="#A80036" points="351.339,283.778,359.2898,277.9655,353.8291,279.4422,352.3525,273.9814,351.339,283.778" style="stroke: #A80036; stroke-width: 1.0;"/><text fill="#000000" font-family="Noto Sans CJK TC Light" font-size="11" font-weight="bold" lengthAdjust="spacingAndGlyphs" textLength="47" x="387.211" y="167.377">滑鼠離開</text><!--link 淡出 to 淡入--><path d="M361.689,290.074 C388.5,269.369 428.778,232.511 443.211,189 C450.208,167.908 449.779,160.23 443.211,139 C435.524,114.151 418.851,90.013 404.317,72.286 " fill="none" id="淡出-淡入" style="stroke: #A80036; stroke-width: 1.0;"/><polygon fill="#A80036" points="401.061,68.376,403.7463,77.8517,404.2605,72.2183,409.894,72.7325,401.061,68.376" style="stroke: #A80036; stroke-width: 1.0;"/><text fill="#000000" font-family="Noto Sans CJK TC Light" font-size="11" font-weight="bold" lengthAdjust="spacingAndGlyphs" textLength="46" x="450.211" y="167.377">滑鼠懸停</text><!--link 顯示 to 顯示--><path d="M225.489,154.864 C242.985,152.095 260.211,155.141 260.211,164 C260.211,171.96 246.306,175.226 230.794,173.8 " fill="none" id="顯示-顯示" style="stroke: #A80036; stroke-width: 1.0;"/><polygon fill="#A80036" points="225.489,173.136,233.9219,178.2238,230.4502,173.7576,234.9164,170.2859,225.489,173.136" style="stroke: #A80036; stroke-width: 1.0;"/><text fill="#000000" font-family="Noto Sans CJK TC Light" font-size="11" font-weight="bold" lengthAdjust="spacingAndGlyphs" textLength="46" x="298.711" y="161.377">滑鼠移動</text><text fill="#000000" font-family="Noto Sans CJK TC Light" font-size="11" lengthAdjust="spacingAndGlyphs" textLength="0" x="346.711" y="161.377"/><text fill="#000000" font-family="Noto Sans CJK TC Light" font-size="11" lengthAdjust="spacingAndGlyphs" textLength="111" x="268.211" y="173.0444">移動工具提示至游標處</text><!--link 顯示 to 淡出--><path d="M192.456,189.354 C188.69,206.025 186.922,227.935 197.211,244 C221.081,281.269 272.745,297.135 305.923,303.671 " fill="none" id="顯示-淡出" style="stroke: #A80036; stroke-width: 1.0;"/><polygon fill="#A80036" points="311.081,304.642,302.9754,299.0474,306.1672,303.7178,301.4967,306.9095,311.081,304.642" style="stroke: #A80036; stroke-width: 1.0;"/><text fill="#000000" font-family="Noto Sans CJK TC Light" font-size="11" font-weight="bold" lengthAdjust="spacingAndGlyphs" textLength="92" x="198.211" y="228.877">時間到，滑鼠離開</text><text fill="#000000" font-family="Noto Sans CJK TC Light" font-size="11" lengthAdjust="spacingAndGlyphs" textLength="0" x="292.211" y="228.877"/><text fill="#000000" font-family="Noto Sans CJK TC Light" font-size="11" lengthAdjust="spacingAndGlyphs" textLength="56" x="218.211" y="240.5444">啟動計時器</text><!--link 顯示 to 淡出--><path d="M225.472,173.763 C247.001,182.351 277.502,197.324 297.211,219 C312.564,235.885 322.582,259.778 328.615,278.557 " fill="none" id="顯示-淡出" style="stroke: #A80036; stroke-width: 1.0;"/><polygon fill="#A80036" points="330.213,283.708,331.367,273.927,328.7316,278.9325,323.7261,276.2972,330.213,283.708" style="stroke: #A80036; stroke-width: 1.0;"/><text fill="#000000" font-family="Noto Sans CJK TC Light" font-size="11" font-weight="bold" lengthAdjust="spacingAndGlyphs" textLength="47" x="315.211" y="234.877">滑鼠離開</text><!--link 淡出 to 淡出--><path d="M361.489,302.571 C378.985,300.623 396.211,302.766 396.211,309 C396.211,314.601 382.306,316.9 366.794,315.896 " fill="none" id="淡出-淡出" style="stroke: #A80036; stroke-width: 1.0;"/><polygon fill="#A80036" points="361.489,315.429,370.1034,320.2031,366.4697,315.8676,370.8052,312.234,361.489,315.429" style="stroke: #A80036; stroke-width: 1.0;"/><text fill="#000000" font-family="Noto Sans CJK TC Light" font-size="11" font-weight="bold" lengthAdjust="spacingAndGlyphs" textLength="34" x="433.211" y="288.877">計時器</text><text fill="#000000" font-family="Noto Sans CJK TC Light" font-size="11" lengthAdjust="spacingAndGlyphs" textLength="0" x="469.211" y="288.877"/><text fill="#000000" font-family="Noto Sans CJK TC Light" font-size="11" lengthAdjust="spacingAndGlyphs" textLength="73" x="414.711" y="300.5444">/ 遞減不透明度</text><text fill="#000000" font-family="Noto Sans CJK TC Light" font-size="11" lengthAdjust="spacingAndGlyphs" textLength="94" x="404.211" y="312.2119">如果透明度已經到0</text><text fill="#000000" font-family="Noto Sans CJK TC Light" font-size="11" lengthAdjust="spacingAndGlyphs" textLength="56" x="423.211" y="323.8794">停止計時器</text><text fill="#000000" font-family="Noto Sans CJK TC Light" font-size="11" lengthAdjust="spacingAndGlyphs" textLength="66" x="419.211" y="335.5469">刪除工具提示</text><!--link 淡出 to 淡出--><path d="M361.467,300.742 C412.236,290.587 506.211,293.34 506.211,309 C506.211,324.14 418.373,327.216 366.662,318.227 " fill="none" id="淡出-淡出" style="stroke: #A80036; stroke-width: 1.0;"/><polygon fill="#A80036" points="361.467,317.258,369.5804,322.8413,366.3821,318.1753,371.0481,314.977,361.467,317.258" style="stroke: #A80036; stroke-width: 1.0;"/><text fill="#000000" font-family="Noto Sans CJK TC Light" font-size="11" font-weight="bold" lengthAdjust="spacingAndGlyphs" textLength="105" x="515.211" y="306.377">滑鼠移動，滑鼠離開</text><text fill="#000000" font-family="Noto Sans CJK TC Light" font-size="11" lengthAdjust="spacingAndGlyphs" textLength="0" x="622.211" y="306.377"/><text fill="#000000" font-family="Noto Sans CJK TC Light" font-size="11" lengthAdjust="spacingAndGlyphs" textLength="111" x="514.211" y="318.0444">移動工具提示至游標處</text><!--link 淡出 to 未啟動--><path d="M310.851,332.208 C279.253,359.879 225.247,407.1721 190.939,437.216 " fill="none" id="淡出-未啟動" style="stroke: #A80036; stroke-width: 1.0;"/><polygon fill="#A80036" points="186.855,440.7919,196.2609,437.8715,190.6164,437.4977,190.9903,431.8532,186.855,440.7919" style="stroke: #A80036; stroke-width: 1.0;"/><!--
@startuml
skinparam state {
  FontName "Noto Sans CJK TC Medium"
  FontSize 14
}

skinparam arrow {
  FontName "Noto Sans CJK TC Light"
  FontSize 11
}

state 未啟動 {
}

state 暫停 {
}

state 淡入 {
}

state 顯示 {
}

state 淡出 {
}

[*] -right-> 未啟動
未啟動 -up-> 暫停 : **滑鼠懸停** \n / 記錄滑鼠位置 \n 開始計時
暫停 - -> 未啟動  : **滑鼠離開** \n 清除計時器
暫停 -up-> 淡入 : **時間到** \n /在滑鼠位置建立工具提示 \n 啟動計時器
暫停 - -> 暫停 : **滑鼠移動** \n / 記錄滑鼠位置 \n 重設計時器
淡入 - -> 淡入 : **計時器** \n / 遞增不透明度 \n 如果透明度已經到極限 \n 停止計時器 \n 啟動計時器
淡入 - -> 淡入 : **滑鼠移動** \n 移動工具提示至游標處
淡入 - -> 顯示
淡入 - -> 淡出 : **滑鼠離開**
顯示 -right-> 顯示 : **滑鼠移動** \n 移動工具提示至游標處
顯示 - -> 淡出 : **時間到，滑鼠離開** \n 啟動計時器
顯示 - -> 淡出 : **滑鼠離開**
淡出 - -> 淡出 : **計時器** \n / 遞減不透明度 \n 如果透明度已經到0 \n 停止計時器 \n 刪除工具提示
淡出 - -> 未啟動
淡出 - -> 淡入 : **滑鼠懸停**
淡出 - -> 淡出 : **滑鼠移動，滑鼠離開** \n 移動工具提示至游標處

@enduml

PlantUML version 1.2018.12(Sun Oct 21 18:15:15 CST 2018)
(GPL source distribution)
Java Runtime: Java(TM) SE Runtime Environment
JVM: Java HotSpot(TM) Client VM
Java Version: 1.8.0_162-b12
Operating System: Windows 10
OS Version: 10.0
Default Encoding: MS950
Language: zh
Country: TW
--></g></svg>