<?xml version="1.0" encoding="UTF-8" standalone="no"?><svg xmlns="http://www.w3.org/2000/svg" xmlns:xlink="http://www.w3.org/1999/xlink" contentScriptType="application/ecmascript" contentStyleType="text/css" height="373px" preserveAspectRatio="none" style="width:384px;height:373px;" version="1.1" viewBox="0 0 384 373" width="384px" zoomAndPan="magnify"><defs><filter height="300%" id="f1h8huf0p202g" width="300%" x="-1" y="-1"><feGaussianBlur result="blurOut" stdDeviation="2.0"/><feColorMatrix in="blurOut" result="blurOut2" type="matrix" values="0 0 0 0 0 0 0 0 0 0 0 0 0 0 0 0 0 0 .4 0"/><feOffset dx="4.0" dy="4.0" in="blurOut2" result="blurOut3"/><feBlend in="SourceGraphic" in2="blurOut3" mode="normal"/></filter></defs><g><ellipse cx="113" cy="188" fill="#000000" filter="url(#f1h8huf0p202g)" rx="10" ry="10" style="stroke: none; stroke-width: 1.0;"/><rect fill="#FEFECE" filter="url(#f1h8huf0p202g)" height="50" rx="12.5" ry="12.5" style="stroke: #A80036; stroke-width: 1.5;" width="62" x="6" y="163"/><line style="stroke: #A80036; stroke-width: 1.5;" x1="6" x2="68" y1="187.7899" y2="187.7899"/><text fill="#000000" font-family="Noto Sans CJK TC Medium" font-size="14" lengthAdjust="spacingAndGlyphs" textLength="42" x="16" y="179.3338">未啟動</text><rect fill="#FEFECE" filter="url(#f1h8huf0p202g)" height="50" rx="12.5" ry="12.5" style="stroke: #A80036; stroke-width: 1.5;" width="50" x="7" y="18"/><line style="stroke: #A80036; stroke-width: 1.5;" x1="7" x2="57" y1="42.7899" y2="42.7899"/><text fill="#000000" font-family="Noto Sans CJK TC Medium" font-size="14" lengthAdjust="spacingAndGlyphs" textLength="28" x="18" y="34.3338">暫停</text><rect fill="#FEFECE" filter="url(#f1h8huf0p202g)" height="50" rx="12.5" ry="12.5" style="stroke: #A80036; stroke-width: 1.5;" width="50" x="167" y="18"/><line style="stroke: #A80036; stroke-width: 1.5;" x1="167" x2="217" y1="42.7899" y2="42.7899"/><text fill="#000000" font-family="Noto Sans CJK TC Medium" font-size="14" lengthAdjust="spacingAndGlyphs" textLength="28" x="178" y="34.3338">淡入</text><rect fill="#FEFECE" filter="url(#f1h8huf0p202g)" height="50" rx="12.5" ry="12.5" style="stroke: #A80036; stroke-width: 1.5;" width="50" x="159" y="163"/><line style="stroke: #A80036; stroke-width: 1.5;" x1="159" x2="209" y1="187.7899" y2="187.7899"/><text fill="#000000" font-family="Noto Sans CJK TC Medium" font-size="14" lengthAdjust="spacingAndGlyphs" textLength="28" x="170" y="179.3338">顯示</text><rect fill="#FEFECE" filter="url(#f1h8huf0p202g)" height="50" rx="12.5" ry="12.5" style="stroke: #A80036; stroke-width: 1.5;" width="50" x="96" y="308"/><line style="stroke: #A80036; stroke-width: 1.5;" x1="96" x2="146" y1="332.7899" y2="332.7899"/><text fill="#000000" font-family="Noto Sans CJK TC Medium" font-size="14" lengthAdjust="spacingAndGlyphs" textLength="27" x="107.5" y="324.3338">淡出</text><!--link *start to 未啟動--><path d="M102.8436,188 C93.0019,188 83.1602,188 73.3185,188 " fill="none" id="*start-未啟動" style="stroke: #A80036; stroke-width: 1.0;"/><polygon fill="#A80036" points="68.1719,188,77.1719,192,73.1719,188,77.1719,184,68.1719,188" style="stroke: #A80036; stroke-width: 1.0;"/><!--link 暫停 to 未啟動--><path d="M33.0266,73.362 C33.9479,99.71 35.2842,137.927 36.1477,162.623 " fill="none" id="暫停-未啟動" style="stroke: #A80036; stroke-width: 1.0;"/><polygon fill="#A80036" points="32.8482,68.258,29.1644,77.392,33.0225,73.255,37.1595,77.1131,32.8482,68.258" style="stroke: #A80036; stroke-width: 1.0;"/><text fill="#000000" font-family="Noto Sans CJK TC Light" font-size="11" font-weight="bold" lengthAdjust="spacingAndGlyphs" textLength="46" x="39" y="117.877">滑鼠懸停</text><text fill="#000000" font-family="Noto Sans CJK TC Light" font-size="11" lengthAdjust="spacingAndGlyphs" textLength="0" x="87" y="117.877"/><text fill="#000000" font-family="Noto Sans CJK TC Light" font-size="11" lengthAdjust="spacingAndGlyphs" textLength="50" x="39" y="129.5444">/ 開始計時</text><!--link 暫停 to 淡入--><path d="M57.3525,43 C85.6737,43 131.498,43 161.69,43 " fill="none" id="暫停-淡入" style="stroke: #A80036; stroke-width: 1.0;"/><polygon fill="#A80036" points="166.766,43,157.766,39,161.766,43,157.766,47,166.766,43" style="stroke: #A80036; stroke-width: 1.0;"/><text fill="#000000" font-family="Noto Sans CJK TC Light" font-size="11" font-weight="bold" lengthAdjust="spacingAndGlyphs" textLength="33" x="94.5" y="12.877">時間到</text><text fill="#000000" font-family="Noto Sans CJK TC Light" font-size="11" lengthAdjust="spacingAndGlyphs" textLength="0" x="129.5" y="12.877"/><text fill="#000000" font-family="Noto Sans CJK TC Light" font-size="11" lengthAdjust="spacingAndGlyphs" textLength="71" x="77.5" y="24.5444">/建立工具提示</text><text fill="#000000" font-family="Noto Sans CJK TC Light" font-size="11" lengthAdjust="spacingAndGlyphs" textLength="56" x="84" y="36.2119">啟動計時器</text><!--link 淡入 to 淡入--><path d="M217.278,30.142 C234.773,26.245 252,30.531 252,43 C252,54.202 238.095,58.8 222.582,56.792 " fill="none" id="淡入-淡入" style="stroke: #A80036; stroke-width: 1.0;"/><polygon fill="#A80036" points="217.278,55.858,225.4479,61.3582,222.2022,56.7251,226.8353,53.4795,217.278,55.858" style="stroke: #A80036; stroke-width: 1.0;"/><text fill="#000000" font-family="Noto Sans CJK TC Light" font-size="11" font-weight="bold" lengthAdjust="spacingAndGlyphs" textLength="34" x="297" y="22.877">計時器</text><text fill="#000000" font-family="Noto Sans CJK TC Light" font-size="11" lengthAdjust="spacingAndGlyphs" textLength="0" x="333" y="22.877"/><text fill="#000000" font-family="Noto Sans CJK TC Light" font-size="11" lengthAdjust="spacingAndGlyphs" textLength="73" x="278.5" y="34.5444">/ 遞增不透明度</text><text fill="#000000" font-family="Noto Sans CJK TC Light" font-size="11" lengthAdjust="spacingAndGlyphs" textLength="110" x="260" y="46.2119">如果透明度已經到極限</text><text fill="#000000" font-family="Noto Sans CJK TC Light" font-size="11" lengthAdjust="spacingAndGlyphs" textLength="56" x="287" y="57.8794">停止計時器</text><text fill="#000000" font-family="Noto Sans CJK TC Light" font-size="11" lengthAdjust="spacingAndGlyphs" textLength="56" x="288" y="69.5469">啟動計時器</text><!--link 淡入 to 顯示--><path d="M190.643,68.258 C189.264,92.91 187.126,131.125 185.65,157.511 " fill="none" id="淡入-顯示" style="stroke: #A80036; stroke-width: 1.0;"/><polygon fill="#A80036" points="185.364,162.623,189.8618,153.8612,185.644,157.6308,181.8744,153.4131,185.364,162.623" style="stroke: #A80036; stroke-width: 1.0;"/><!--link 顯示 to 淡出--><path d="M173.313,213.258 C162.407,238.013 145.476,276.4438 133.847,302.8402 " fill="none" id="顯示-淡出" style="stroke: #A80036; stroke-width: 1.0;"/><polygon fill="#A80036" points="131.74,307.623,139.029,300.9995,133.7558,303.0474,131.708,297.7742,131.74,307.623" style="stroke: #A80036; stroke-width: 1.0;"/><text fill="#000000" font-family="Noto Sans CJK TC Light" font-size="11" font-weight="bold" lengthAdjust="spacingAndGlyphs" textLength="33" x="171.5" y="252.877">時間到</text><text fill="#000000" font-family="Noto Sans CJK TC Light" font-size="11" lengthAdjust="spacingAndGlyphs" textLength="0" x="206.5" y="252.877"/><text fill="#000000" font-family="Noto Sans CJK TC Light" font-size="11" lengthAdjust="spacingAndGlyphs" textLength="56" x="162" y="264.5444">啟動計時器</text><!--link 淡出 to 淡出--><path d="M146.278,320.1416 C163.773,316.2451 181,320.5312 181,333 C181,344.2024 167.095,348.7999 151.582,346.7924 " fill="none" id="淡出-淡出" style="stroke: #A80036; stroke-width: 1.0;"/><polygon fill="#A80036" points="146.278,345.8584,154.4479,351.3586,151.2022,346.7255,155.8353,343.4799,146.278,345.8584" style="stroke: #A80036; stroke-width: 1.0;"/><text fill="#000000" font-family="Noto Sans CJK TC Light" font-size="11" font-weight="bold" lengthAdjust="spacingAndGlyphs" textLength="34" x="218" y="312.877">計時器</text><text fill="#000000" font-family="Noto Sans CJK TC Light" font-size="11" lengthAdjust="spacingAndGlyphs" textLength="0" x="254" y="312.877"/><text fill="#000000" font-family="Noto Sans CJK TC Light" font-size="11" lengthAdjust="spacingAndGlyphs" textLength="73" x="199.5" y="324.5444">/ 遞減不透明度</text><text fill="#000000" font-family="Noto Sans CJK TC Light" font-size="11" lengthAdjust="spacingAndGlyphs" textLength="94" x="189" y="336.2119">如果透明度已經到0</text><text fill="#000000" font-family="Noto Sans CJK TC Light" font-size="11" lengthAdjust="spacingAndGlyphs" textLength="56" x="208" y="347.8794">停止計時器</text><text fill="#000000" font-family="Noto Sans CJK TC Light" font-size="11" lengthAdjust="spacingAndGlyphs" textLength="66" x="204" y="359.5469">刪除工具提示</text><!--link 未啟動 to 淡出--><path d="M53.862,217.706 C69.3499,244.072 92.053,282.7212 106.681,307.623 " fill="none" id="未啟動-淡出" style="stroke: #A80036; stroke-width: 1.0;"/><polygon fill="#A80036" points="51.2495,213.258,52.3596,223.0441,53.7822,217.5691,59.2573,218.9917,51.2495,213.258" style="stroke: #A80036; stroke-width: 1.0;"/><!--
@startuml
skinparam state {
  FontName "Noto Sans CJK TC Medium"
  FontSize 14
}

skinparam arrow {
  FontName "Noto Sans CJK TC Light"
  FontSize 11
}

state 未啟動 {
}

state 暫停 {
}

state 淡入 {
}

state 顯示 {
}

state 淡出 {
}

[*] -right-> 未啟動
未啟動 -up-> 暫停 : **滑鼠懸停** \n / 開始計時
暫停 -right-> 淡入 : **時間到** \n /建立工具提示\n啟動計時器
淡入 - -> 淡入 : **計時器** \n / 遞增不透明度 \n 如果透明度已經到極限 \n 停止計時器 \n 啟動計時器
淡入 - -> 顯示
顯示 - -> 淡出 : **時間到** \n 啟動計時器
淡出 - -> 淡出 : **計時器** \n / 遞減不透明度 \n 如果透明度已經到0 \n 停止計時器 \n 刪除工具提示
淡出 -left-> 未啟動

@enduml

PlantUML version 1.2018.12(Sun Oct 21 18:15:15 CST 2018)
(GPL source distribution)
Java Runtime: Java(TM) SE Runtime Environment
JVM: Java HotSpot(TM) Client VM
Java Version: 1.8.0_162-b12
Operating System: Windows 10
OS Version: 10.0
Default Encoding: MS950
Language: zh
Country: TW
--></g></svg>