<?xml version="1.0" encoding="UTF-8" standalone="no"?><svg xmlns="http://www.w3.org/2000/svg" xmlns:xlink="http://www.w3.org/1999/xlink" contentScriptType="application/ecmascript" contentStyleType="text/css" height="315px" preserveAspectRatio="none" style="width:287px;height:315px;" version="1.1" viewBox="0 0 287 315" width="287px" zoomAndPan="magnify"><defs><filter height="300%" id="fmu9xpfn8sjm5" width="300%" x="-1" y="-1"><feGaussianBlur result="blurOut" stdDeviation="2.0"/><feColorMatrix in="blurOut" result="blurOut2" type="matrix" values="0 0 0 0 0 0 0 0 0 0 0 0 0 0 0 0 0 0 .4 0"/><feOffset dx="4.0" dy="4.0" in="blurOut2" result="blurOut3"/><feBlend in="SourceGraphic" in2="blurOut3" mode="normal"/></filter></defs><g><ellipse cx="113" cy="156" fill="#000000" filter="url(#fmu9xpfn8sjm5)" rx="10" ry="10" style="stroke: none; stroke-width: 1.0;"/><rect fill="#FEFECE" filter="url(#fmu9xpfn8sjm5)" height="50" rx="12.5" ry="12.5" style="stroke: #A80036; stroke-width: 1.5;" width="62" x="6" y="131"/><line style="stroke: #A80036; stroke-width: 1.5;" x1="6" x2="68" y1="155.7899" y2="155.7899"/><text fill="#000000" font-family="Noto Sans CJK TC Medium" font-size="14" lengthAdjust="spacingAndGlyphs" textLength="42" x="16" y="147.3338">未啟動</text><rect fill="#FEFECE" filter="url(#fmu9xpfn8sjm5)" height="50" rx="12.5" ry="12.5" style="stroke: #A80036; stroke-width: 1.5;" width="50" x="28" y="8"/><line style="stroke: #A80036; stroke-width: 1.5;" x1="28" x2="78" y1="32.7899" y2="32.7899"/><text fill="#000000" font-family="Noto Sans CJK TC Medium" font-size="14" lengthAdjust="spacingAndGlyphs" textLength="28" x="39" y="24.3338">暫停</text><rect fill="#FEFECE" filter="url(#fmu9xpfn8sjm5)" height="50" rx="12.5" ry="12.5" style="stroke: #A80036; stroke-width: 1.5;" width="50" x="150" y="8"/><line style="stroke: #A80036; stroke-width: 1.5;" x1="150" x2="200" y1="32.7899" y2="32.7899"/><text fill="#000000" font-family="Noto Sans CJK TC Medium" font-size="14" lengthAdjust="spacingAndGlyphs" textLength="28" x="161" y="24.3338">淡入</text><rect fill="#FEFECE" filter="url(#fmu9xpfn8sjm5)" height="50" rx="12.5" ry="12.5" style="stroke: #A80036; stroke-width: 1.5;" width="50" x="158" y="131"/><line style="stroke: #A80036; stroke-width: 1.5;" x1="158" x2="208" y1="155.7899" y2="155.7899"/><text fill="#000000" font-family="Noto Sans CJK TC Medium" font-size="14" lengthAdjust="spacingAndGlyphs" textLength="28" x="169" y="147.3338">顯示</text><rect fill="#FEFECE" filter="url(#fmu9xpfn8sjm5)" height="50" rx="12.5" ry="12.5" style="stroke: #A80036; stroke-width: 1.5;" width="50" x="96" y="254"/><line style="stroke: #A80036; stroke-width: 1.5;" x1="96" x2="146" y1="278.7899" y2="278.7899"/><text fill="#000000" font-family="Noto Sans CJK TC Medium" font-size="14" lengthAdjust="spacingAndGlyphs" textLength="27" x="107.5" y="270.3338">淡出</text><!--link *start to 未啟動--><path d="M102.8436,156 C93.0019,156 83.1602,156 73.3185,156 " fill="none" id="*start-未啟動" style="stroke: #A80036; stroke-width: 1.0;"/><polygon fill="#A80036" points="68.1719,156,77.1719,160,73.1719,156,77.1719,152,68.1719,156" style="stroke: #A80036; stroke-width: 1.0;"/><!--link 暫停 to 未啟動--><path d="M49.1251,63.304 C46.3883,84.001 42.7649,111.403 40.1938,130.847 " fill="none" id="暫停-未啟動" style="stroke: #A80036; stroke-width: 1.0;"/><polygon fill="#A80036" points="49.8006,58.195,44.6549,66.5927,49.1449,63.1518,52.5858,67.6418,49.8006,58.195" style="stroke: #A80036; stroke-width: 1.0;"/><text fill="#000000" font-family="Noto Sans CJK TC Light" font-size="11" font-weight="bold" lengthAdjust="spacingAndGlyphs" textLength="46" x="47" y="97.877">滑鼠懸停</text><!--link 暫停 to 淡入--><path d="M78.2785,33 C97.5809,33 124.251,33 144.698,33 " fill="none" id="暫停-淡入" style="stroke: #A80036; stroke-width: 1.0;"/><polygon fill="#A80036" points="149.754,33,140.754,29,144.754,33,140.754,37,149.754,33" style="stroke: #A80036; stroke-width: 1.0;"/><text fill="#000000" font-family="Noto Sans CJK TC Light" font-size="11" font-weight="bold" lengthAdjust="spacingAndGlyphs" textLength="33" x="97.5" y="26.877">時間到</text><!--link 淡入 to 淡入--><path d="M200.278,22.849 C217.773,19.772 235,23.156 235,33 C235,41.844 221.095,45.474 205.582,43.889 " fill="none" id="淡入-淡入" style="stroke: #A80036; stroke-width: 1.0;"/><polygon fill="#A80036" points="200.278,43.151,208.6413,48.3525,205.2303,43.8397,209.7432,40.4288,200.278,43.151" style="stroke: #A80036; stroke-width: 1.0;"/><text fill="#000000" font-family="Noto Sans CJK TC Light" font-size="11" font-weight="bold" lengthAdjust="spacingAndGlyphs" textLength="34" x="241" y="36.377">計時器</text><!--link 淡入 to 顯示--><path d="M176.6,58.195 C177.886,77.65 179.698,105.054 181.066,125.741 " fill="none" id="淡入-顯示" style="stroke: #A80036; stroke-width: 1.0;"/><polygon fill="#A80036" points="181.403,130.847,184.8002,121.6026,181.073,125.8579,176.8177,122.1307,181.403,130.847" style="stroke: #A80036; stroke-width: 1.0;"/><!--link 顯示 to 淡出--><path d="M170.602,181.195 C160.549,200.815 146.354,228.5186 135.724,249.2652 " fill="none" id="顯示-淡出" style="stroke: #A80036; stroke-width: 1.0;"/><polygon fill="#A80036" points="133.376,253.8466,141.04,247.6609,135.6561,249.3967,133.9202,244.0128,133.376,253.8466" style="stroke: #A80036; stroke-width: 1.0;"/><text fill="#000000" font-family="Noto Sans CJK TC Light" font-size="11" font-weight="bold" lengthAdjust="spacingAndGlyphs" textLength="33" x="154" y="220.877">時間到</text><!--link 淡出 to 淡出--><path d="M146.278,268.8486 C163.773,265.7725 181,269.1562 181,279 C181,287.844 167.095,291.4736 151.582,289.8887 " fill="none" id="淡出-淡出" style="stroke: #A80036; stroke-width: 1.0;"/><polygon fill="#A80036" points="146.278,289.1514,154.6414,294.3527,151.2304,289.84,155.7431,286.4289,146.278,289.1514" style="stroke: #A80036; stroke-width: 1.0;"/><text fill="#000000" font-family="Noto Sans CJK TC Light" font-size="11" font-weight="bold" lengthAdjust="spacingAndGlyphs" textLength="34" x="187" y="282.377">計時器</text><!--link 未啟動 to 淡出--><path d="M56.7975,185.518 C71.2267,206.3028 90.5627,234.1558 104.2323,253.8466 " fill="none" id="未啟動-淡出" style="stroke: #A80036; stroke-width: 1.0;"/><polygon fill="#A80036" points="53.7968,181.195,55.6435,190.8692,56.6482,185.3022,62.2151,186.3069,53.7968,181.195" style="stroke: #A80036; stroke-width: 1.0;"/><!--
@startuml
skinparam state {
  FontName "Noto Sans CJK TC Medium"
  FontSize 14
}

skinparam arrow {
  FontName "Noto Sans CJK TC Light"
  FontSize 11
}

state 未啟動 {
}

state 暫停 {
}

state 淡入 {
}

state 顯示 {
}

state 淡出 {
}

[*] -right-> 未啟動
未啟動 -up-> 暫停 : **滑鼠懸停**
暫停 -right-> 淡入 : **時間到**
淡入 - -> 淡入 : **計時器**
淡入 - -> 顯示
顯示 - -> 淡出 : **時間到**
淡出 - -> 淡出 : **計時器**
淡出 -left-> 未啟動

@enduml

PlantUML version 1.2018.12(Sun Oct 21 18:15:15 CST 2018)
(GPL source distribution)
Java Runtime: Java(TM) SE Runtime Environment
JVM: Java HotSpot(TM) Client VM
Java Version: 1.8.0_162-b12
Operating System: Windows 10
OS Version: 10.0
Default Encoding: MS950
Language: zh
Country: TW
--></g></svg>