<?xml version="1.0" encoding="UTF-8" standalone="no"?><svg xmlns="http://www.w3.org/2000/svg" xmlns:xlink="http://www.w3.org/1999/xlink" contentScriptType="application/ecmascript" contentStyleType="text/css" height="445px" preserveAspectRatio="none" style="width:578px;height:445px;" version="1.1" viewBox="0 0 578 445" width="578px" zoomAndPan="magnify"><defs><filter height="300%" id="ffe86d1ruwv1c" width="300%" x="-1" y="-1"><feGaussianBlur result="blurOut" stdDeviation="2.0"/><feColorMatrix in="blurOut" result="blurOut2" type="matrix" values="0 0 0 0 0 0 0 0 0 0 0 0 0 0 0 0 0 0 .4 0"/><feOffset dx="4.0" dy="4.0" in="blurOut2" result="blurOut3"/><feBlend in="SourceGraphic" in2="blurOut3" mode="normal"/></filter></defs><g><!--class TransitionFunction--><rect fill="#FEFECE" filter="url(#ffe86d1ruwv1c)" height="129.2878" id="TransitionFunction" style="stroke: #A80036; stroke-width: 1.5;" width="162" x="207.5" y="8"/><ellipse cx="222.5" cy="24" fill="#ADD1B2" rx="11" ry="11" style="stroke: #A80036; stroke-width: 1.0;"/><path d="M226.625,27.9531 Q226.2656,28.5781 225.4219,29.2188 Q224.0156,30.2344 221.2813,30.2344 Q219.0938,30.2344 217.625,28.7656 Q215.9219,27.0625 215.9219,23.875 Q215.9219,20.9375 217.6094,19.1406 Q219.1563,17.5156 221.375,17.5156 Q223.25,17.5156 224.2344,17.8125 Q225.2188,18.1094 225.2188,18.1094 Q225.2188,18.1094 225.2188,17.5469 L226.2344,17.4531 L226.3906,21.5156 L225.0625,21.6406 Q224.25,18.0469 221.5156,18.0469 Q221.5156,18.0469 220.9219,18.3281 Q220.0156,18.6719 219.5,19.2188 Q218.125,20.7656 218.1094,23.9063 Q218.0938,26.6875 219.625,28.25 Q220.9219,29.5781 221.75,29.5781 Q223.7813,29.5781 225.9688,27.0156 L226.625,27.9531 Z "/><text fill="#000000" font-family="Noto Sans CJK TC Medium" font-size="14" lengthAdjust="spacingAndGlyphs" textLength="130" x="236.5" y="27.9388">TransitionFunction</text><line style="stroke: #A80036; stroke-width: 1.5;" x1="208.5" x2="368.5" y1="40" y2="40"/><line style="stroke: #A80036; stroke-width: 1.5;" x1="208.5" x2="368.5" y1="48" y2="48"/><rect fill="#F24D5C" height="6" style="stroke: #C82930; stroke-width: 1.0;" width="6" x="215.5" y="56.3063"/><text fill="#000000" font-family="Noto Sans CJK TC Medium" font-size="11" lengthAdjust="spacingAndGlyphs" textLength="100" x="227.5" y="60.8989">InitEventHandlers()</text><ellipse cx="218.5" cy="70.9188" fill="#84BE84" rx="3" ry="3" style="stroke: #038048; stroke-width: 1.0;"/><text fill="#000000" font-family="Noto Sans CJK TC Medium" font-size="11" lengthAdjust="spacingAndGlyphs" textLength="81" x="227.5" y="72.5115">HandledEvent()</text><ellipse cx="218.5" cy="82.5314" fill="#84BE84" rx="3" ry="3" style="stroke: #038048; stroke-width: 1.0;"/><text fill="#000000" font-family="Noto Sans CJK TC Medium" font-size="11" lengthAdjust="spacingAndGlyphs" textLength="86" x="227.5" y="84.124">OnMouseMove()</text><ellipse cx="218.5" cy="94.1439" fill="#84BE84" rx="3" ry="3" style="stroke: #038048; stroke-width: 1.0;"/><text fill="#000000" font-family="Noto Sans CJK TC Medium" font-size="11" lengthAdjust="spacingAndGlyphs" textLength="78" x="227.5" y="95.7366">OnMouseOut()</text><ellipse cx="218.5" cy="105.7565" fill="#84BE84" rx="3" ry="3" style="stroke: #038048; stroke-width: 1.0;"/><text fill="#000000" font-family="Noto Sans CJK TC Medium" font-size="11" lengthAdjust="spacingAndGlyphs" textLength="83" x="227.5" y="107.3491">OnMouseOver()</text><ellipse cx="218.5" cy="117.369" fill="#84BE84" rx="3" ry="3" style="stroke: #038048; stroke-width: 1.0;"/><text fill="#000000" font-family="Noto Sans CJK TC Medium" font-size="11" lengthAdjust="spacingAndGlyphs" textLength="70" x="227.5" y="118.9617">OnTimeOut()</text><ellipse cx="218.5" cy="128.9816" fill="#84BE84" rx="3" ry="3" style="stroke: #038048; stroke-width: 1.0;"/><text fill="#000000" font-family="Noto Sans CJK TC Medium" font-size="11" lengthAdjust="spacingAndGlyphs" textLength="77" x="227.5" y="130.5742">OnTimeTicks()</text><!--class FadeInState--><rect fill="#FEFECE" filter="url(#ffe86d1ruwv1c)" height="82.8376" id="FadeInState" style="stroke: #A80036; stroke-width: 1.5;" width="115" x="6" y="197"/><ellipse cx="21" cy="213" fill="#ADD1B2" rx="11" ry="11" style="stroke: #A80036; stroke-width: 1.0;"/><path d="M25.125,216.9531 Q24.7656,217.5781 23.9219,218.2188 Q22.5156,219.2344 19.7813,219.2344 Q17.5938,219.2344 16.125,217.7656 Q14.4219,216.0625 14.4219,212.875 Q14.4219,209.9375 16.1094,208.1406 Q17.6563,206.5156 19.875,206.5156 Q21.75,206.5156 22.7344,206.8125 Q23.7188,207.1094 23.7188,207.1094 Q23.7188,207.1094 23.7188,206.5469 L24.7344,206.4531 L24.8906,210.5156 L23.5625,210.6406 Q22.75,207.0469 20.0156,207.0469 Q20.0156,207.0469 19.4219,207.3281 Q18.5156,207.6719 18,208.2188 Q16.625,209.7656 16.6094,212.9063 Q16.5938,215.6875 18.125,217.25 Q19.4219,218.5781 20.25,218.5781 Q22.2813,218.5781 24.4688,216.0156 L25.125,216.9531 Z "/><text fill="#000000" font-family="Noto Sans CJK TC Medium" font-size="14" lengthAdjust="spacingAndGlyphs" textLength="83" x="35" y="216.9388">FadeInState</text><line style="stroke: #A80036; stroke-width: 1.5;" x1="7" x2="120" y1="229" y2="229"/><line style="stroke: #A80036; stroke-width: 1.5;" x1="7" x2="120" y1="237" y2="237"/><ellipse cx="17" cy="248.3063" fill="#84BE84" rx="3" ry="3" style="stroke: #038048; stroke-width: 1.0;"/><text fill="#000000" font-family="Noto Sans CJK TC Medium" font-size="11" lengthAdjust="spacingAndGlyphs" textLength="70" x="26" y="249.8989">MouseMove()</text><ellipse cx="17" cy="259.9188" fill="#84BE84" rx="3" ry="3" style="stroke: #038048; stroke-width: 1.0;"/><text fill="#000000" font-family="Noto Sans CJK TC Medium" font-size="11" lengthAdjust="spacingAndGlyphs" textLength="62" x="26" y="261.5115">MouseOut()</text><ellipse cx="17" cy="271.5314" fill="#84BE84" rx="3" ry="3" style="stroke: #038048; stroke-width: 1.0;"/><text fill="#000000" font-family="Noto Sans CJK TC Medium" font-size="11" lengthAdjust="spacingAndGlyphs" textLength="77" x="26" y="273.124">OnTimeTicks()</text><!--class FadeOutState--><rect fill="#FEFECE" filter="url(#ffe86d1ruwv1c)" height="94.4502" id="FadeOutState" style="stroke: #A80036; stroke-width: 1.5;" width="127" x="111" y="340"/><ellipse cx="126" cy="356" fill="#ADD1B2" rx="11" ry="11" style="stroke: #A80036; stroke-width: 1.0;"/><path d="M130.125,359.9531 Q129.7656,360.5781 128.9219,361.2188 Q127.5156,362.2344 124.7813,362.2344 Q122.5938,362.2344 121.125,360.7656 Q119.4219,359.0625 119.4219,355.875 Q119.4219,352.9375 121.1094,351.1406 Q122.6563,349.5156 124.875,349.5156 Q126.75,349.5156 127.7344,349.8125 Q128.7188,350.1094 128.7188,350.1094 Q128.7188,350.1094 128.7188,349.5469 L129.7344,349.4531 L129.8906,353.5156 L128.5625,353.6406 Q127.75,350.0469 125.0156,350.0469 Q125.0156,350.0469 124.4219,350.3281 Q123.5156,350.6719 123,351.2188 Q121.625,352.7656 121.6094,355.9063 Q121.5938,358.6875 123.125,360.25 Q124.4219,361.5781 125.25,361.5781 Q127.2813,361.5781 129.4688,359.0156 L130.125,359.9531 Z "/><text fill="#000000" font-family="Noto Sans CJK TC Medium" font-size="14" lengthAdjust="spacingAndGlyphs" textLength="95" x="140" y="359.9388">FadeOutState</text><line style="stroke: #A80036; stroke-width: 1.5;" x1="112" x2="237" y1="372" y2="372"/><line style="stroke: #A80036; stroke-width: 1.5;" x1="112" x2="237" y1="380" y2="380"/><ellipse cx="122" cy="391.3063" fill="#84BE84" rx="3" ry="3" style="stroke: #038048; stroke-width: 1.0;"/><text fill="#000000" font-family="Noto Sans CJK TC Medium" font-size="11" lengthAdjust="spacingAndGlyphs" textLength="86" x="131" y="392.8989">OnMouseMove()</text><ellipse cx="122" cy="402.9188" fill="#84BE84" rx="3" ry="3" style="stroke: #038048; stroke-width: 1.0;"/><text fill="#000000" font-family="Noto Sans CJK TC Medium" font-size="11" lengthAdjust="spacingAndGlyphs" textLength="78" x="131" y="404.5115">OnMouseOut()</text><ellipse cx="122" cy="414.5314" fill="#84BE84" rx="3" ry="3" style="stroke: #038048; stroke-width: 1.0;"/><text fill="#000000" font-family="Noto Sans CJK TC Medium" font-size="11" lengthAdjust="spacingAndGlyphs" textLength="83" x="131" y="416.124">OnMouseOver()</text><ellipse cx="122" cy="426.1439" fill="#84BE84" rx="3" ry="3" style="stroke: #038048; stroke-width: 1.0;"/><text fill="#000000" font-family="Noto Sans CJK TC Medium" font-size="11" lengthAdjust="spacingAndGlyphs" textLength="77" x="131" y="427.7366">OnTimeTicks()</text><!--class InactiveState--><rect fill="#FEFECE" filter="url(#ffe86d1ruwv1c)" height="82.8376" id="InactiveState" style="stroke: #A80036; stroke-width: 1.5;" width="122" x="227.5" y="197"/><ellipse cx="242.5" cy="213" fill="#ADD1B2" rx="11" ry="11" style="stroke: #A80036; stroke-width: 1.0;"/><path d="M246.625,216.9531 Q246.2656,217.5781 245.4219,218.2188 Q244.0156,219.2344 241.2813,219.2344 Q239.0938,219.2344 237.625,217.7656 Q235.9219,216.0625 235.9219,212.875 Q235.9219,209.9375 237.6094,208.1406 Q239.1563,206.5156 241.375,206.5156 Q243.25,206.5156 244.2344,206.8125 Q245.2188,207.1094 245.2188,207.1094 Q245.2188,207.1094 245.2188,206.5469 L246.2344,206.4531 L246.3906,210.5156 L245.0625,210.6406 Q244.25,207.0469 241.5156,207.0469 Q241.5156,207.0469 240.9219,207.3281 Q240.0156,207.6719 239.5,208.2188 Q238.125,209.7656 238.1094,212.9063 Q238.0938,215.6875 239.625,217.25 Q240.9219,218.5781 241.75,218.5781 Q243.7813,218.5781 245.9688,216.0156 L246.625,216.9531 Z "/><text fill="#000000" font-family="Noto Sans CJK TC Medium" font-size="14" lengthAdjust="spacingAndGlyphs" textLength="90" x="256.5" y="216.9388">InactiveState</text><line style="stroke: #A80036; stroke-width: 1.5;" x1="228.5" x2="348.5" y1="229" y2="229"/><line style="stroke: #A80036; stroke-width: 1.5;" x1="228.5" x2="348.5" y1="237" y2="237"/><ellipse cx="238.5" cy="248.3063" fill="#84BE84" rx="3" ry="3" style="stroke: #038048; stroke-width: 1.0;"/><text fill="#000000" font-family="Noto Sans CJK TC Medium" font-size="11" lengthAdjust="spacingAndGlyphs" textLength="86" x="247.5" y="249.8989">OnMouseMove()</text><ellipse cx="238.5" cy="259.9188" fill="#84BE84" rx="3" ry="3" style="stroke: #038048; stroke-width: 1.0;"/><text fill="#000000" font-family="Noto Sans CJK TC Medium" font-size="11" lengthAdjust="spacingAndGlyphs" textLength="78" x="247.5" y="261.5115">OnMouseOut()</text><ellipse cx="238.5" cy="271.5314" fill="#84BE84" rx="3" ry="3" style="stroke: #038048; stroke-width: 1.0;"/><text fill="#000000" font-family="Noto Sans CJK TC Medium" font-size="11" lengthAdjust="spacingAndGlyphs" textLength="83" x="247.5" y="273.124">OnMouseOver()</text><!--class DisplayState--><rect fill="#FEFECE" filter="url(#ffe86d1ruwv1c)" height="82.8376" id="DisplayState" style="stroke: #A80036; stroke-width: 1.5;" width="117" x="344" y="345.5"/><ellipse cx="359" cy="361.5" fill="#ADD1B2" rx="11" ry="11" style="stroke: #A80036; stroke-width: 1.0;"/><path d="M363.125,365.4531 Q362.7656,366.0781 361.9219,366.7188 Q360.5156,367.7344 357.7813,367.7344 Q355.5938,367.7344 354.125,366.2656 Q352.4219,364.5625 352.4219,361.375 Q352.4219,358.4375 354.1094,356.6406 Q355.6563,355.0156 357.875,355.0156 Q359.75,355.0156 360.7344,355.3125 Q361.7188,355.6094 361.7188,355.6094 Q361.7188,355.6094 361.7188,355.0469 L362.7344,354.9531 L362.8906,359.0156 L361.5625,359.1406 Q360.75,355.5469 358.0156,355.5469 Q358.0156,355.5469 357.4219,355.8281 Q356.5156,356.1719 356,356.7188 Q354.625,358.2656 354.6094,361.4063 Q354.5938,364.1875 356.125,365.75 Q357.4219,367.0781 358.25,367.0781 Q360.2813,367.0781 362.4688,364.5156 L363.125,365.4531 Z "/><text fill="#000000" font-family="Noto Sans CJK TC Medium" font-size="14" lengthAdjust="spacingAndGlyphs" textLength="85" x="373" y="365.4388">DisplayState</text><line style="stroke: #A80036; stroke-width: 1.5;" x1="345" x2="460" y1="377.5" y2="377.5"/><line style="stroke: #A80036; stroke-width: 1.5;" x1="345" x2="460" y1="385.5" y2="385.5"/><ellipse cx="355" cy="396.8063" fill="#84BE84" rx="3" ry="3" style="stroke: #038048; stroke-width: 1.0;"/><text fill="#000000" font-family="Noto Sans CJK TC Medium" font-size="11" lengthAdjust="spacingAndGlyphs" textLength="70" x="364" y="398.3989">MouseMove()</text><ellipse cx="355" cy="408.4188" fill="#84BE84" rx="3" ry="3" style="stroke: #038048; stroke-width: 1.0;"/><text fill="#000000" font-family="Noto Sans CJK TC Medium" font-size="11" lengthAdjust="spacingAndGlyphs" textLength="62" x="364" y="410.0115">MouseOut()</text><ellipse cx="355" cy="420.0314" fill="#84BE84" rx="3" ry="3" style="stroke: #038048; stroke-width: 1.0;"/><text fill="#000000" font-family="Noto Sans CJK TC Medium" font-size="11" lengthAdjust="spacingAndGlyphs" textLength="54" x="364" y="421.624">TimeOut()</text><!--class PauseState--><rect fill="#FEFECE" filter="url(#ffe86d1ruwv1c)" height="82.8376" id="PauseState" style="stroke: #A80036; stroke-width: 1.5;" width="112" x="455.5" y="197"/><ellipse cx="470.95" cy="213" fill="#ADD1B2" rx="11" ry="11" style="stroke: #A80036; stroke-width: 1.0;"/><path d="M475.075,216.9531 Q474.7156,217.5781 473.8719,218.2188 Q472.4656,219.2344 469.7313,219.2344 Q467.5438,219.2344 466.075,217.7656 Q464.3719,216.0625 464.3719,212.875 Q464.3719,209.9375 466.0594,208.1406 Q467.6063,206.5156 469.825,206.5156 Q471.7,206.5156 472.6844,206.8125 Q473.6688,207.1094 473.6688,207.1094 Q473.6688,207.1094 473.6688,206.5469 L474.6844,206.4531 L474.8406,210.5156 L473.5125,210.6406 Q472.7,207.0469 469.9656,207.0469 Q469.9656,207.0469 469.3719,207.3281 Q468.4656,207.6719 467.95,208.2188 Q466.575,209.7656 466.5594,212.9063 Q466.5438,215.6875 468.075,217.25 Q469.3719,218.5781 470.2,218.5781 Q472.2313,218.5781 474.4188,216.0156 L475.075,216.9531 Z "/><text fill="#000000" font-family="Noto Sans CJK TC Medium" font-size="14" lengthAdjust="spacingAndGlyphs" textLength="79" x="485.05" y="216.9388">PauseState</text><line style="stroke: #A80036; stroke-width: 1.5;" x1="456.5" x2="566.5" y1="229" y2="229"/><line style="stroke: #A80036; stroke-width: 1.5;" x1="456.5" x2="566.5" y1="237" y2="237"/><ellipse cx="466.5" cy="248.3063" fill="#84BE84" rx="3" ry="3" style="stroke: #038048; stroke-width: 1.0;"/><text fill="#000000" font-family="Noto Sans CJK TC Medium" font-size="11" lengthAdjust="spacingAndGlyphs" textLength="86" x="475.5" y="249.8989">OnMouseMove()</text><ellipse cx="466.5" cy="259.9188" fill="#84BE84" rx="3" ry="3" style="stroke: #038048; stroke-width: 1.0;"/><text fill="#000000" font-family="Noto Sans CJK TC Medium" font-size="11" lengthAdjust="spacingAndGlyphs" textLength="78" x="475.5" y="261.5115">OnMouseOut()</text><ellipse cx="466.5" cy="271.5314" fill="#84BE84" rx="3" ry="3" style="stroke: #038048; stroke-width: 1.0;"/><text fill="#000000" font-family="Noto Sans CJK TC Medium" font-size="11" lengthAdjust="spacingAndGlyphs" textLength="70" x="475.5" y="273.124">OnTimeOut()</text><!--link TransitionFunction to FadeInState--><path d="M190.931,144.617 C166.415,162.487 140.936,181.058 119.262,196.855 " fill="none" id="TransitionFunction-FadeInState" style="stroke: #A80036; stroke-width: 1.0;"/><polygon fill="none" points="186.984,138.832,207.27,132.708,195.231,150.145,186.984,138.832" style="stroke: #A80036; stroke-width: 1.0;"/><!--link TransitionFunction to FadeOutState--><path d="M230.406,154.751 C222.464,168.397 215.123,182.762 209.5,197 C191.054,243.712 182.2,300.822 178.035,339.9603 " fill="none" id="TransitionFunction-FadeOutState" style="stroke: #A80036; stroke-width: 1.0;"/><polygon fill="none" points="224.681,150.695,241.098,137.297,236.619,158.008,224.681,150.695" style="stroke: #A80036; stroke-width: 1.0;"/><!--link TransitionFunction to InactiveState--><path d="M288.5,157.818 C288.5,171.37 288.5,184.839 288.5,196.74 " fill="none" id="TransitionFunction-InactiveState" style="stroke: #A80036; stroke-width: 1.0;"/><polygon fill="none" points="281.5,157.376,288.5,137.376,295.5,157.376,281.5,157.376" style="stroke: #A80036; stroke-width: 1.0;"/><!--link TransitionFunction to DisplayState--><path d="M345.642,154.603 C353.546,168.308 360.87,182.73 366.5,197 C385.807,245.938 394.984,306.198 399.187,345.3256 " fill="none" id="TransitionFunction-DisplayState" style="stroke: #A80036; stroke-width: 1.0;"/><polygon fill="none" points="339.396,157.803,335.012,137.072,351.367,150.544,339.396,157.803" style="stroke: #A80036; stroke-width: 1.0;"/><!--link TransitionFunction to PauseState--><path d="M386.072,145.257 C410.093,162.922 434.989,181.232 456.207,196.836 " fill="none" id="TransitionFunction-PauseState" style="stroke: #A80036; stroke-width: 1.0;"/><polygon fill="none" points="381.604,150.66,369.639,133.172,389.898,139.382,381.604,150.66" style="stroke: #A80036; stroke-width: 1.0;"/><!--
@startuml
skinparam class {
  FontName "Noto Sans CJK TC Medium"
  FontSize 14
  AttributeFontName "Noto Sans CJK TC Medium"
  AttributeFontSize 11
}

class TransitionFunction {
    -InitEventHandlers()
    +HandledEvent()
    +OnMouseMove()
    +OnMouseOut()
    +OnMouseOver()
    +OnTimeOut()
    +OnTimeTicks()
}

class FadeInState {
    +MouseMove()
    +MouseOut()
    +OnTimeTicks()
}

class FadeOutState {
    +OnMouseMove()
    +OnMouseOut()
    +OnMouseOver()
    +OnTimeTicks()
}

class InactiveState {
    +OnMouseMove()
    +OnMouseOut()
    +OnMouseOver()
}

class DisplayState {
    +MouseMove()
    +MouseOut()
    +TimeOut()
}

class PauseState {
    +OnMouseMove()
    +OnMouseOut()
    +OnTimeOut()
}


TransitionFunction <|- - FadeInState
TransitionFunction <|- - - FadeOutState
TransitionFunction <|- - InactiveState
TransitionFunction <|- - - DisplayState
TransitionFunction <|- - PauseState

@enduml

PlantUML version 1.2018.12(Sun Oct 21 18:15:15 CST 2018)
(GPL source distribution)
Java Runtime: Java(TM) SE Runtime Environment
JVM: Java HotSpot(TM) Client VM
Java Version: 1.8.0_162-b12
Operating System: Windows 10
OS Version: 10.0
Default Encoding: MS950
Language: zh
Country: TW
--></g></svg>