<?xml version="1.0" encoding="UTF-8" standalone="no"?><svg xmlns="http://www.w3.org/2000/svg" xmlns:xlink="http://www.w3.org/1999/xlink" contentScriptType="application/ecmascript" contentStyleType="text/css" height="283px" preserveAspectRatio="none" style="width:179px;height:283px;" version="1.1" viewBox="0 0 179 283" width="179px" zoomAndPan="magnify"><defs><filter height="300%" id="f15crgccczzjip" width="300%" x="-1" y="-1"><feGaussianBlur result="blurOut" stdDeviation="2.0"/><feColorMatrix in="blurOut" result="blurOut2" type="matrix" values="0 0 0 0 0 0 0 0 0 0 0 0 0 0 0 0 0 0 .4 0"/><feOffset dx="4.0" dy="4.0" in="blurOut2" result="blurOut3"/><feBlend in="SourceGraphic" in2="blurOut3" mode="normal"/></filter></defs><g><!--class StateMachine--><rect fill="#FEFECE" filter="url(#f15crgccczzjip)" height="48" id="StateMachine" style="stroke: #A80036; stroke-width: 1.5;" width="127" x="23.5" y="116"/><ellipse cx="38.5" cy="132" fill="#ADD1B2" rx="11" ry="11" style="stroke: #A80036; stroke-width: 1.0;"/><path d="M42.625,135.9531 Q42.2656,136.5781 41.4219,137.2188 Q40.0156,138.2344 37.2813,138.2344 Q35.0938,138.2344 33.625,136.7656 Q31.9219,135.0625 31.9219,131.875 Q31.9219,128.9375 33.6094,127.1406 Q35.1563,125.5156 37.375,125.5156 Q39.25,125.5156 40.2344,125.8125 Q41.2188,126.1094 41.2188,126.1094 Q41.2188,126.1094 41.2188,125.5469 L42.2344,125.4531 L42.3906,129.5156 L41.0625,129.6406 Q40.25,126.0469 37.5156,126.0469 Q37.5156,126.0469 36.9219,126.3281 Q36.0156,126.6719 35.5,127.2188 Q34.125,128.7656 34.1094,131.9063 Q34.0938,134.6875 35.625,136.25 Q36.9219,137.5781 37.75,137.5781 Q39.7813,137.5781 41.9688,135.0156 L42.625,135.9531 Z "/><text fill="#000000" font-family="Noto Sans CJK TC Medium" font-size="14" lengthAdjust="spacingAndGlyphs" textLength="95" x="52.5" y="135.9388">StateMachine</text><line style="stroke: #A80036; stroke-width: 1.5;" x1="24.5" x2="149.5" y1="148" y2="148"/><line style="stroke: #A80036; stroke-width: 1.5;" x1="24.5" x2="149.5" y1="156" y2="156"/><!--class Tooltip--><rect fill="#FEFECE" filter="url(#f15crgccczzjip)" height="48" id="Tooltip" style="stroke: #A80036; stroke-width: 1.5;" width="80" x="47" y="8"/><ellipse cx="62" cy="24" fill="#ADD1B2" rx="11" ry="11" style="stroke: #A80036; stroke-width: 1.0;"/><path d="M66.125,27.9531 Q65.7656,28.5781 64.9219,29.2188 Q63.5156,30.2344 60.7813,30.2344 Q58.5938,30.2344 57.125,28.7656 Q55.4219,27.0625 55.4219,23.875 Q55.4219,20.9375 57.1094,19.1406 Q58.6563,17.5156 60.875,17.5156 Q62.75,17.5156 63.7344,17.8125 Q64.7188,18.1094 64.7188,18.1094 Q64.7188,18.1094 64.7188,17.5469 L65.7344,17.4531 L65.8906,21.5156 L64.5625,21.6406 Q63.75,18.0469 61.0156,18.0469 Q61.0156,18.0469 60.4219,18.3281 Q59.5156,18.6719 59,19.2188 Q57.625,20.7656 57.6094,23.9063 Q57.5938,26.6875 59.125,28.25 Q60.4219,29.5781 61.25,29.5781 Q63.2813,29.5781 65.4688,27.0156 L66.125,27.9531 Z "/><text fill="#000000" font-family="Noto Sans CJK TC Medium" font-size="14" lengthAdjust="spacingAndGlyphs" textLength="48" x="76" y="27.9388">Tooltip</text><line style="stroke: #A80036; stroke-width: 1.5;" x1="48" x2="126" y1="40" y2="40"/><line style="stroke: #A80036; stroke-width: 1.5;" x1="48" x2="126" y1="48" y2="48"/><!--class TransitionFunction--><rect fill="#FEFECE" filter="url(#f15crgccczzjip)" height="48" id="TransitionFunction" style="stroke: #A80036; stroke-width: 1.5;" width="162" x="6" y="224"/><ellipse cx="21" cy="240" fill="#ADD1B2" rx="11" ry="11" style="stroke: #A80036; stroke-width: 1.0;"/><path d="M25.125,243.9531 Q24.7656,244.5781 23.9219,245.2188 Q22.5156,246.2344 19.7813,246.2344 Q17.5938,246.2344 16.125,244.7656 Q14.4219,243.0625 14.4219,239.875 Q14.4219,236.9375 16.1094,235.1406 Q17.6563,233.5156 19.875,233.5156 Q21.75,233.5156 22.7344,233.8125 Q23.7188,234.1094 23.7188,234.1094 Q23.7188,234.1094 23.7188,233.5469 L24.7344,233.4531 L24.8906,237.5156 L23.5625,237.6406 Q22.75,234.0469 20.0156,234.0469 Q20.0156,234.0469 19.4219,234.3281 Q18.5156,234.6719 18,235.2188 Q16.625,236.7656 16.6094,239.9063 Q16.5938,242.6875 18.125,244.25 Q19.4219,245.5781 20.25,245.5781 Q22.2813,245.5781 24.4688,243.0156 L25.125,243.9531 Z "/><text fill="#000000" font-family="Noto Sans CJK TC Medium" font-size="14" lengthAdjust="spacingAndGlyphs" textLength="130" x="35" y="243.9388">TransitionFunction</text><line style="stroke: #A80036; stroke-width: 1.5;" x1="7" x2="167" y1="256" y2="256"/><line style="stroke: #A80036; stroke-width: 1.5;" x1="7" x2="167" y1="264" y2="264"/><!--link Tooltip to StateMachine--><path d="M87,69.338 C87,84.681 87,102.098 87,115.678 " fill="none" id="Tooltip-StateMachine" style="stroke: #A80036; stroke-width: 1.0;"/><polygon fill="#A80036" points="87,56,83,62,87,68,91,62,87,56" style="stroke: #A80036; stroke-width: 1.0;"/><text fill="#000000" font-family="sans-serif" font-size="13" lengthAdjust="spacingAndGlyphs" textLength="7" x="79.1469" y="79.7663">1</text><text fill="#000000" font-family="sans-serif" font-size="13" lengthAdjust="spacingAndGlyphs" textLength="7" x="79.1469" y="105.2783">1</text><!--link StateMachine to TransitionFunction--><path d="M87,177.3383 C87,192.6813 87,210.098 87,223.6784 " fill="none" id="StateMachine-TransitionFunction" style="stroke: #A80036; stroke-width: 1.0;"/><polygon fill="#A80036" points="87,164,83,170,87,176,91,170,87,164" style="stroke: #A80036; stroke-width: 1.0;"/><text fill="#000000" font-family="sans-serif" font-size="13" lengthAdjust="spacingAndGlyphs" textLength="7" x="79.1469" y="187.7663">1</text><text fill="#000000" font-family="sans-serif" font-size="13" lengthAdjust="spacingAndGlyphs" textLength="5" x="81.3906" y="213.2788">*</text><!--
@startuml
skinparam class {
  FontName "Noto Sans CJK TC Medium"
  FontSize 14
  AttributeFontName "Noto Sans CJK TC Medium"
  AttributeFontSize 11
}

class StateMachine {
}

class Tooltip {
}

class TransitionFunction {
}

Tooltip "1" *- - "1" StateMachine
StateMachine "1" *- - "*" TransitionFunction

@enduml

PlantUML version 1.2018.12(Sun Oct 21 18:15:15 CST 2018)
(GPL source distribution)
Java Runtime: Java(TM) SE Runtime Environment
JVM: Java HotSpot(TM) Client VM
Java Version: 1.8.0_162-b12
Operating System: Windows 10
OS Version: 10.0
Default Encoding: MS950
Language: zh
Country: TW
--></g></svg>